<svg id="SvgjsSvg43693" width="135" height="58" xmlns="http://www.w3.org/2000/svg" version="1.1" xmlns:xlink="http://www.w3.org/1999/xlink" xmlns:svgjs="http://svgjs.com/svgjs" viewBox="776 129 135 58"><defs id="SvgjsDefs43694"></defs><svg id="SvgjsSvg43695" width="135" height="58" xmlns="http://www.w3.org/2000/svg" version="1.1" xmlns:xlink="http://www.w3.org/1999/xlink" xmlns:svgjs="http://svgjs.com/svgjs" viewBox="776 129 135 58" x="776" y="129"><defs id="SvgjsDefs43696"></defs><svg id="SvgjsSvg43697" width="135" height="58" xmlns="http://www.w3.org/2000/svg" version="1.1" xmlns:xlink="http://www.w3.org/1999/xlink" xmlns:svgjs="http://svgjs.com/svgjs" viewBox="776 129 135 58" x="776" y="129"><defs id="SvgjsDefs43698"></defs><svg id="SvgjsSvg43699" width="65" height="55" xmlns="http://www.w3.org/2000/svg" version="1.1" xmlns:xlink="http://www.w3.org/1999/xlink" xmlns:svgjs="http://svgjs.com/svgjs" viewBox="776 129 65 55" x="776" y="129"><defs id="SvgjsDefs43700"></defs><svg id="SvgjsSvg43701" width="14" height="18" xmlns="http://www.w3.org/2000/svg" version="1.1" xmlns:xlink="http://www.w3.org/1999/xlink" xmlns:svgjs="http://svgjs.com/svgjs" viewBox="0 0.1824951171875 14 17.635059356689453" fill="#ffffff" opacity="1" x="776" y="130"><defs id="SvgjsDefs43702"></defs><svg version="1.1" xmlns="http://www.w3.org/2000/svg" xmlns:xlink="http://www.w3.org/1999/xlink" width="14" height="18" viewBox="0.525247 0.297446 13.3905 16.8673"><g><path fill="#ffffff" stroke="none" paint-order="stroke fill markers" fill-rule="evenodd" d=" M 13.915786743164062 13.88900363445282 C 13.915786743164062 13.88900363445282 13.915786743164062 16.99276888370514 13.915786743164062 16.99276888370514 C 13.915786743164062 16.99276888370514 11.444899559020996 16.99276888370514 11.444899559020996 16.99276888370514 C 10.927427172660828 16.99276888370514 10.496296763420105 16.892090678215027 10.152087807655334 16.690734267234802 C 9.806719899177551 16.489665508270264 9.519299626350403 16.255229115486145 9.289247512817383 15.986562132835388 C 8.963581800460815 16.255229115486145 8.528395056724548 16.518430709838867 7.982528328895569 16.777029871940613 C 7.436082124710083 17.03562903404236 6.722167253494263 17.164784789085388 5.841363191604614 17.164784789085388 C 5.247399926185608 17.164784789085388 4.634893417358398 17.088269352912903 4.002684712409973 16.935238480567932 C 3.3698965311050415 16.781919956207275 2.795635461807251 16.489665508270264 2.2781630754470825 16.058475136756897 C 1.7612701654434204 15.627572417259216 1.3394113779067993 15.014585971832275 1.0143251419067383 14.21980345249176 C 0.6880799531936646 13.425020933151245 0.5252470970153809 12.375954031944275 0.5252470970153809 11.073178052902222 C 0.5252470970153809 10.28760039806366 0.6208606958389282 9.550348281860352 0.8126673698425293 8.86055874824524 C 1.0044740438461304 8.171056866645813 1.3197091817855835 7.57274067401886 1.7612701654434204 7.064747214317322 C 2.2016721963882446 6.557329058647156 2.76724112033844 6.155191540718079 3.4562385082244873 5.857759356498718 C 4.145815372467041 5.56090247631073 4.998225092887878 5.412474036216736 6.014047145843506 5.412474036216736 C 6.645676374435425 5.412474036216736 7.282520890235901 5.455621838569641 7.924580693244934 5.541629791259766 C 8.566061019897461 5.62763774394989 9.165239572525024 5.724001169204712 9.720377922058105 5.828994154930115 C 10.276095747947693 5.934274792671204 10.831234097480774 6.05422568321228 11.386951923370361 6.188271522521973 C 11.386951923370361 6.188271522521973 11.386951923370361 13.429623365402222 11.386951923370361 13.429623365402222 C 11.386951923370361 13.583229541778564 11.439684271812439 13.697715044021606 11.545148968696594 13.774230480194092 C 11.65061366558075 13.851033568382263 11.770565271377563 13.88900363445282 11.905003786087036 13.88900363445282 C 11.905003786087036 13.88900363445282 13.915786743164062 13.88900363445282 13.915786743164062 13.88900363445282 Z M 2.824029803276062 2.165170431137085 C 2.824029803276062 1.6482597589492798 3.005985379219055 1.207576870918274 3.3698965311050415 0.8436970710754395 C 3.733807682991028 0.479817271232605 4.184640288352966 0.2974458932876587 4.720655918121338 0.2974458932876587 C 5.237548828125 0.2974458932876587 5.678530335426331 0.479817271232605 6.043020963668823 0.8436970710754395 C 6.406352639198303 1.207576870918274 6.588887691497803 1.6482597589492798 6.588887691497803 2.165170431137085 C 6.588887691497803 2.682656407356262 6.406352639198303 3.123626947402954 6.043020963668823 3.4872190952301025 C 5.678530335426331 3.851098895072937 5.237548828125 4.033182621002197 4.720655918121338 4.033182621002197 C 4.184640288352966 4.033182621002197 3.733807682991028 3.851098895072937 3.3698965311050415 3.4872190952301025 C 3.005985379219055 3.123626947402954 2.824029803276062 2.682656407356262 2.824029803276062 2.165170431137085 Z M 8.169119715690613 8.544716835021973 C 7.8052085638046265 8.468201398849487 7.450569033622742 8.42016351222992 7.105780601501465 8.400890827178955 C 6.760992169380188 8.381905794143677 6.4735718965530396 8.372125625610352 6.2435197830200195 8.372125625610352 C 5.898731350898743 8.372125625610352 5.572486162185669 8.41067099571228 5.267102122306824 8.487186431884766 C 4.9599796533584595 8.563701868057251 4.6916821002960205 8.702637791633606 4.462209463119507 8.903706550598145 C 4.232157349586487 9.104775309562683 4.055417060852051 9.387824892997742 3.930829644203186 9.75141704082489 C 3.805662751197815 10.11558449268341 3.7436587810516357 10.575252413749695 3.7436587810516357 11.130708456039429 C 3.7436587810516357 12.184377789497375 3.9453165531158447 12.94579267501831 4.346893668174744 13.414953112602234 C 4.749629735946655 13.88468885421753 5.314619183540344 14.119125247001648 6.043020963668823 14.119125247001648 C 6.348984479904175 14.119125247001648 6.631189465522766 14.085757613182068 6.8902153968811035 14.018447041511536 C 7.148661851882935 13.951711773872375 7.378713965415955 13.870306253433228 7.579792261123657 13.774230480194092 C 7.78087055683136 13.678442358970642 7.977313041687012 13.563669204711914 8.169119715690613 13.429623365402222 C 8.169119715690613 13.429623365402222 8.169119715690613 8.544716835021973 8.169119715690613 8.544716835021973 Z M 7.163148760795593 2.165170431137085 C 7.163148760795593 1.6482597589492798 7.3503196239471436 1.207576870918274 7.7235023975372314 0.8436970710754395 C 8.097264647483826 0.479817271232605 8.5423024892807 0.2974458932876587 9.05977487564087 0.2974458932876587 C 9.577247262001038 0.2974458932876587 10.017649292945862 0.479817271232605 10.381560444831848 0.8436970710754395 C 10.744892120361328 1.207576870918274 10.927427172660828 1.6482597589492798 10.927427172660828 2.165170431137085 C 10.927427172660828 2.682656407356262 10.744892120361328 3.123626947402954 10.381560444831848 3.4872190952301025 C 10.017649292945862 3.851098895072937 9.577247262001038 4.033182621002197 9.05977487564087 4.033182621002197 C 8.5423024892807 4.033182621002197 8.097264647483826 3.851098895072937 7.7235023975372314 3.4872190952301025 C 7.3503196239471436 3.123626947402954 7.163148760795593 2.682656407356262 7.163148760795593 2.165170431137085 Z"></path></g></svg></svg><svg id="SvgjsSvg43705" width="11" height="17" xmlns="http://www.w3.org/2000/svg" version="1.1" xmlns:xlink="http://www.w3.org/1999/xlink" xmlns:svgjs="http://svgjs.com/svgjs" viewBox="0.5439453125 0 9.912109375 17" fill="#ffffff" opacity="1" x="788" y="130"><defs id="SvgjsDefs43706"></defs><svg version="1.1" xmlns="http://www.w3.org/2000/svg" xmlns:xlink="http://www.w3.org/1999/xlink" width="11" height="17" viewBox="0.93879 0.383741 9.68421 16.609"><g><path fill="#ffffff" stroke="none" paint-order="stroke fill markers" fill-rule="evenodd" d=" M 4.157201290130615 7.624805688858032 C 4.157201290130615 6.7437275648117065 4.57848060131073 6.303044676780701 5.421618700027466 6.303044676780701 C 5.421618700027466 6.303044676780701 7.375033497810364 6.303044676780701 7.375033497810364 6.303044676780701 C 7.375033497810364 6.303044676780701 7.375033497810364 13.400570511817932 7.375033497810364 13.400570511817932 C 7.375033497810364 13.611707091331482 7.552353262901306 13.745465278625488 7.906992793083191 13.802995681762695 C 8.261632323265076 13.860526084899902 8.812714338302612 13.88900363445282 9.559079885482788 13.88900363445282 C 9.559079885482788 13.88900363445282 10.622998476028442 13.88900363445282 10.622998476028442 13.88900363445282 C 10.622998476028442 13.88900363445282 10.622998476028442 16.99276888370514 10.622998476028442 16.99276888370514 C 10.622998476028442 16.99276888370514 9.559079885482788 16.99276888370514 9.559079885482788 16.99276888370514 C 9.15750277042389 16.99276888370514 8.65915310382843 16.901583194732666 8.06576931476593 16.719787120819092 C 7.470647096633911 16.53770339488983 6.9346314668655396 16.264721632003784 6.455983996391296 15.900554180145264 C 6.130318284034729 16.187918543815613 5.713674783706665 16.442202925682068 5.2060534954071045 16.662256717681885 C 4.698432207107544 16.882598161697388 4.109104752540588 16.99276888370514 3.4392300844192505 16.99276888370514 C 3.4392300844192505 16.99276888370514 0.9387896060943604 16.99276888370514 0.9387896060943604 16.99276888370514 C 0.9387896060943604 16.99276888370514 0.9387896060943604 13.88900363445282 0.9387896060943604 13.88900363445282 C 0.9387896060943604 13.88900363445282 2.7490737438201904 13.88900363445282 2.7490737438201904 13.88900363445282 C 3.2474234104156494 13.88900363445282 3.606698751449585 13.764737963676453 3.826899766921997 13.515631318092346 C 4.047100782394409 13.26652467250824 4.157201290130615 12.95097041130066 4.157201290130615 12.567242622375488 C 4.157201290130615 12.567242622375488 4.157201290130615 7.624805688858032 4.157201290130615 7.624805688858032 Z M 3.7840185165405273 2.2514660358428955 C 3.7840185165405273 1.7342677116394043 3.965394616127014 1.2935848236083984 4.329885244369507 0.929705023765564 C 4.693216919898987 0.5661128759384155 5.134198427200317 0.38374149799346924 5.6510913372039795 0.38374149799346924 C 6.168563723564148 0.38374149799346924 6.614181041717529 0.5661128759384155 6.9879432916641235 0.929705023765564 C 7.361705541610718 1.2935848236083984 7.548296928405762 1.7342677116394043 7.548296928405762 2.2514660358428955 C 7.548296928405762 2.788224697113037 7.361705541610718 3.238400101661682 6.9879432916641235 3.6022799015045166 C 6.614181041717529 3.966159701347351 6.168563723564148 4.148243427276611 5.6510913372039795 4.148243427276611 C 5.134198427200317 4.148243427276611 4.693216919898987 3.966159701347351 4.329885244369507 3.6022799015045166 C 3.965394616127014 3.238400101661682 3.7840185165405273 2.788224697113037 3.7840185165405273 2.2514660358428955 Z"></path></g></svg></svg><svg id="SvgjsSvg43709" width="20" height="17" xmlns="http://www.w3.org/2000/svg" version="1.1" xmlns:xlink="http://www.w3.org/1999/xlink" xmlns:svgjs="http://svgjs.com/svgjs" viewBox="0.35076904296875 0 19.298437118530273 17" fill="#ffffff" opacity="1" x="797" y="130"><defs id="SvgjsDefs43710"></defs><svg version="1.1" xmlns="http://www.w3.org/2000/svg" xmlns:xlink="http://www.w3.org/1999/xlink" width="20" height="17" viewBox="0.616446 0.412507 18.822 16.5803"><g><path fill="#ffffff" stroke="none" paint-order="stroke fill markers" fill-rule="evenodd" d=" M 2.225653886795044 6.992834210395813 C 2.225653886795044 6.130741119384766 2.6469331979751587 5.699550747871399 3.490650773048401 5.699550747871399 C 3.490650773048401 5.699550747871399 5.444065570831299 5.699550747871399 5.444065570831299 5.699550747871399 C 5.444065570831299 5.699550747871399 5.444065570831299 7.05036461353302 5.444065570831299 7.05036461353302 C 5.444065570831299 7.05036461353302 13.97801387310028 5.699550747871399 13.97801387310028 5.699550747871399 C 14.322802305221558 5.661293029785156 14.720323085784912 5.675963282585144 15.170576214790344 5.742698550224304 C 15.620829343795776 5.810009121894836 16.06586718559265 5.944054961204529 16.506848692893982 6.145123720169067 C 16.947250723838806 6.346192479133606 17.34013569355011 6.59040904045105 17.684924125671387 6.877773404121399 C 18.029712557792664 7.165137767791748 18.33161973953247 7.510032534599304 18.590645670890808 7.912170052528381 C 18.84909212589264 8.314595222473145 19.054226756095886 8.793535828590393 19.208367466926575 9.349279522895813 C 19.360769748687744 9.904735565185547 19.438419580459595 10.55597972869873 19.438419580459595 11.30329966545105 C 19.438419580459595 12.031346917152405 19.3567134141922 12.73983383178711 19.19330108165741 13.429335713386536 C 19.030468225479126 14.118837594985962 18.757534861564636 14.727509260177612 18.375080466270447 15.253912448883057 C 17.991467118263245 15.781178593635559 17.469358921051025 16.2025887966156 16.809335350990295 16.518430709838867 C 16.148152828216553 16.834272623062134 15.319501638412476 16.99276888370514 14.322802305221558 16.99276888370514 C 14.322802305221558 16.99276888370514 0.6164480447769165 16.99276888370514 0.6164480447769165 16.99276888370514 C 0.6164480447769165 16.99276888370514 0.6164480447769165 13.88900363445282 0.6164480447769165 13.88900363445282 C 0.6164480447769165 13.88900363445282 2.225653886795044 13.88900363445282 2.225653886795044 13.88900363445282 C 2.225653886795044 13.88900363445282 2.225653886795044 6.992834210395813 2.225653886795044 6.992834210395813 Z M 5.444065570831299 2.280231237411499 C 5.444065570831299 1.7627452611923218 5.626600623130798 1.322637677192688 5.989932298660278 0.9581825733184814 C 6.353843450546265 0.594590425491333 6.794824957847595 0.41250669956207275 7.312297344207764 0.41250669956207275 C 7.829190254211426 0.41250669956207275 8.274807572364807 0.594590425491333 8.647990345954895 0.9581825733184814 C 9.022332072257996 1.322637677192688 9.20892345905304 1.7627452611923218 9.20892345905304 2.280231237411499 C 9.20892345905304 2.8167022466659546 9.022332072257996 3.2671653032302856 8.647990345954895 3.630757451057434 C 8.274807572364807 3.9949249029159546 7.829190254211426 4.176720976829529 7.312297344207764 4.176720976829529 C 6.794824957847595 4.176720976829529 6.353843450546265 3.9949249029159546 5.989932298660278 3.630757451057434 C 5.626600623130798 3.2671653032302856 5.444065570831299 2.8167022466659546 5.444065570831299 2.280231237411499 Z M 13.920645713806152 13.88900363445282 C 14.112452387809753 13.88900363445282 14.341925024986267 13.855923652648926 14.610802054405212 13.788613080978394 C 14.878520131111145 13.721877813339233 15.142181873321533 13.601926922798157 15.40120780467987 13.429335713386536 C 15.659654259681702 13.2570321559906 15.879855275154114 13.012815594673157 16.0612313747406 12.696686029434204 C 16.242607474327087 12.380556464195251 16.335323691368103 11.963748693466187 16.335323691368103 11.446550369262695 C 16.335323691368103 10.872109293937683 16.252458572387695 10.402661204338074 16.090784668922424 10.03878140449524 C 15.927372336387634 9.674901604652405 15.731509327888489 9.397029757499695 15.501457214355469 9.20516586303711 C 15.271405100822449 9.014164924621582 15.02686607837677 8.879831433296204 14.768999099731445 8.803028345108032 C 14.509973168373108 8.726512908935547 14.294407963752747 8.687967538833618 14.121724009513855 8.687967538833618 C 14.121724009513855 8.687967538833618 5.444065570831299 10.153842210769653 5.444065570831299 10.153842210769653 C 5.444065570831299 10.153842210769653 5.444065570831299 13.88900363445282 5.444065570831299 13.88900363445282 C 5.444065570831299 13.88900363445282 13.920645713806152 13.88900363445282 13.920645713806152 13.88900363445282 Z"></path></g></svg></svg><svg id="SvgjsSvg43713" width="8" height="18" xmlns="http://www.w3.org/2000/svg" version="1.1" xmlns:xlink="http://www.w3.org/1999/xlink" xmlns:svgjs="http://svgjs.com/svgjs" viewBox="0.59539794921875 0 6.809179782867432 18" fill="#ffffff" opacity="1" x="819" y="129"><defs id="SvgjsDefs43714"></defs><svg version="1.1" xmlns="http://www.w3.org/2000/svg" xmlns:xlink="http://www.w3.org/1999/xlink" width="8" height="18" viewBox="0.684646 0.521936 6.60893 17.4708"><g><path fill="#ffffff" stroke="none" paint-order="stroke fill markers" fill-rule="evenodd" d=" M 0.6846461296081543 0.5219360589981079 C 0.6846461296081543 0.5219360589981079 2.6386404037475586 0.5219360589981079 2.6386404037475586 0.5219360589981079 C 3.481199026107788 0.5219360589981079 3.903057813644409 0.9528387784957886 3.903057813644409 1.81464421749115 C 3.903057813644409 1.81464421749115 3.903057813644409 13.021279096603394 3.903057813644409 13.021279096603394 C 3.903057813644409 13.634840846061707 4.084433913230896 14.098823547363281 4.448924541473389 14.414953112602234 C 4.812256217002869 14.731082677841187 5.396947860717773 14.88900363445282 6.20184051990509 14.88900363445282 C 6.20184051990509 14.88900363445282 7.293573975563049 14.88900363445282 7.293573975563049 14.88900363445282 C 7.293573975563049 14.88900363445282 7.293573975563049 17.99276888370514 7.293573975563049 17.99276888370514 C 7.293573975563049 17.99276888370514 6.172866702079773 17.99276888370514 6.172866702079773 17.99276888370514 C 5.081133246421814 17.99276888370514 4.1852627992630005 17.858723044395447 3.486414313316345 17.59005606174469 C 2.7864068746566772 17.32225203514099 2.2266327142715454 16.939099550247192 1.8053534030914307 16.44088625907898 C 1.3834946155548096 15.942960619926453 1.0920180082321167 15.334576606750488 0.9286056756973267 14.616021871566772 C 0.7663522958755493 13.898042440414429 0.6846461296081543 13.088877320289612 0.6846461296081543 12.18795120716095 C 0.6846461296081543 12.18795120716095 0.6846461296081543 0.5219360589981079 0.6846461296081543 0.5219360589981079 Z"></path></g></svg></svg><svg id="SvgjsSvg43717" width="16" height="12" xmlns="http://www.w3.org/2000/svg" version="1.1" xmlns:xlink="http://www.w3.org/1999/xlink" xmlns:svgjs="http://svgjs.com/svgjs" viewBox="0.04107666015625 0 15.917773246765137 12" fill="#ffffff" opacity="1" x="825" y="135"><defs id="SvgjsDefs43718"></defs><svg version="1.1" xmlns="http://www.w3.org/2000/svg" xmlns:xlink="http://www.w3.org/1999/xlink" width="16" height="12" viewBox="0.201261 0.728604 14.9418 11.2642"><g><path fill="#ffffff" stroke="none" paint-order="stroke fill markers" fill-rule="evenodd" d=" M 0.20126104354858398 8.88900363445282 C 0.20126104354858398 8.88900363445282 11.982594847679138 8.88900363445282 11.982594847679138 8.88900363445282 C 11.982594847679138 8.88900363445282 11.982594847679138 7.308931112289429 11.982594847679138 7.308931112289429 C 11.982594847679138 6.753475069999695 11.958256840705872 6.255549430847168 11.910739779472351 5.814578890800476 C 11.862643241882324 5.374183654785156 11.737476348876953 4.995345950126648 11.53639805316925 4.679216384887695 C 11.335319757461548 4.363374471664429 11.019505143165588 4.1240479946136475 10.588374733924866 3.9612369537353516 C 10.15782380104065 3.7987135648727417 9.558645248413086 3.7167327404022217 8.7931569814682 3.7167327404022217 C 8.007387042045593 3.7167327404022217 7.250590920448303 3.770236015319824 6.522768616676331 3.874941349029541 C 5.793787360191345 3.980509638786316 5.238649010658264 4.080900192260742 4.856194615364075 4.176688313484192 C 4.070424675941467 4.349279522895813 3.581926107406616 4.10937774181366 3.3906989097595215 3.458421230316162 C 3.3906989097595215 3.458421230316162 2.960147976875305 1.5901213884353638 2.960147976875305 1.5901213884353638 C 3.5720750093460083 1.437378168106079 4.180525183677673 1.3030446767807007 4.784339547157288 1.1882715225219727 C 5.3875744342803955 1.0732107162475586 6.048756957054138 0.9682177305221558 6.766728162765503 0.87214195728302 C 7.485278844833374 0.7763538360595703 8.20788586139679 0.7286036014556885 8.936287641525269 0.7286036014556885 C 10.04656434059143 0.7286036014556885 11.000382423400879 0.839061975479126 11.795423984527588 1.0585404634475708 C 12.591045022010803 1.2794572114944458 13.231945872306824 1.633556842803955 13.720444440841675 2.122277617454529 C 14.208943009376526 2.6107107400894165 14.568218350410461 3.238079786300659 14.798270463943481 4.004097104072571 C 15.028322577476501 4.7706897258758545 15.143058896064758 5.690313220024109 15.143058896064758 6.762679934501648 C 15.143058896064758 6.762679934501648 15.143058896064758 9.061594843864441 15.143058896064758 9.061594843864441 C 15.143058896064758 10.05773377418518 14.941980600357056 10.79556119441986 14.539244532585144 11.273926496505737 C 14.137087941169739 11.752867102622986 13.390142917633057 11.99276888370514 12.298409461975098 11.99276888370514 C 12.298409461975098 11.99276888370514 0.20126104354858398 11.99276888370514 0.20126104354858398 11.99276888370514 C 0.20126104354858398 11.99276888370514 0.20126104354858398 8.88900363445282 0.20126104354858398 8.88900363445282 Z"></path></g></svg></svg><svg id="SvgjsSvg43721" width="15" height="21" xmlns="http://www.w3.org/2000/svg" version="1.1" xmlns:xlink="http://www.w3.org/1999/xlink" xmlns:svgjs="http://svgjs.com/svgjs" viewBox="0.06793212890625 0 14.864160537719727 21" fill="#ffffff" opacity="1" x="782" y="159"><defs id="SvgjsDefs43722"></defs><svg version="1.1" xmlns="http://www.w3.org/2000/svg" xmlns:xlink="http://www.w3.org/1999/xlink" width="15" height="21" viewBox="0.81836 0.886195 13.8506 19.5681"><g><path fill="#ffffff" stroke="none" paint-order="stroke fill markers" fill-rule="evenodd" d=" M 0.8183603286743164 14.391457319259644 C 0.8183603286743164 13.605879664421082 0.9383119344711304 12.90659761428833 1.177635669708252 12.293898820877075 C 1.4169594049453735 11.680912375450134 1.6997438669204712 11.187589168548584 2.025989055633545 10.813929200172424 C 2.351075291633606 10.440269231796265 2.7051353454589844 10.1388099193573 3.089328169822693 9.908688306808472 C 3.471203088760376 9.678566694259644 3.8351142406463623 9.506550788879395 4.179902672767639 9.39148998260498 C 4.02750039100647 9.123398303985596 3.893061876296997 8.7690110206604 3.7789050340652466 8.328328132629395 C 3.6635892391204834 7.887932896614075 3.6056416034698486 7.34196937084198 3.6056416034698486 6.690725207328796 C 3.6056416034698486 5.828344464302063 3.749351739883423 5.043054461479187 4.036772012710571 4.334279894828796 C 4.32419228553772 3.6255053281784058 4.74141526222229 3.0174089670181274 5.286702513694763 2.5094155073165894 C 5.832569241523743 2.0022850036621094 6.49780809879303 1.6041746139526367 7.2841575145721436 1.3170979022979736 C 8.068768501281738 1.0297335386276245 8.960582613945007 0.886195182800293 9.956702470779419 0.886195182800293 C 10.416227221488953 0.886195182800293 10.918633222579956 0.9342330694198608 11.465079426765442 1.0297335386276245 C 12.010946154594421 1.1258093118667603 12.542325973510742 1.230802297592163 13.05979835987091 1.3458631038665771 C 13.577270746231079 1.4606362581253052 14.11328637599945 1.5949697494506836 14.669004201889038 1.7480006217956543 C 14.669004201889038 1.7480006217956543 14.669004201889038 8.903056859970093 14.669004201889038 8.903056859970093 C 14.669004201889038 9.420255184173584 14.620907664299011 9.927960991859436 14.524714589118958 10.426174283027649 C 14.42910099029541 10.924387574195862 14.238453269004822 11.369672894477844 13.94987404346466 11.762030243873596 C 13.663033246994019 12.15496289730072 13.260876655578613 12.46620237827301 12.743404269218445 12.696323990821838 C 12.226511359214783 12.925870299339294 11.54620611667633 13.040931105613708 10.703647494316101 13.040931105613708 C 10.320034146308899 13.040931105613708 9.927728652954102 13.016768336296082 9.52499258518219 12.969305753707886 C 9.122835993766785 12.920980215072632 8.72531521320343 12.854244947433472 8.332430243492126 12.767661690711975 C 7.940124750137329 12.68165373802185 7.570998311042786 12.581263184547424 7.226789355278015 12.46620237827301 C 6.882000923156738 12.351141571998596 6.59458065032959 12.226875901222229 6.36452853679657 12.09254240989685 C 6.11535370349884 12.150072813034058 5.856327772140503 12.231765985488892 5.58860969543457 12.336758971214294 C 5.320312142372131 12.441751956939697 5.08098840713501 12.581263184547424 4.870059013366699 12.753279089927673 C 4.659129619598389 12.925870299339294 4.472538232803345 13.160306692123413 4.309705376625061 13.457451224327087 C 4.146872520446777 13.754308104515076 4.065166354179382 14.08482027053833 4.065166354179382 14.448700070381165 C 4.065166354179382 14.966186046600342 4.0941401720047 15.444839000701904 4.1520878076553345 15.885809540748596 C 4.209455966949463 16.326204776763916 4.261608839035034 16.718849778175354 4.309705376625061 17.06374454498291 C 4.3572224378585815 17.408639311790466 4.4105342626571655 17.72908365726471 4.4684818983078 18.026228189468384 C 4.525850057601929 18.323085069656372 4.573367118835449 18.567589282989502 4.611612558364868 18.758877873420715 C 4.669560194015503 19.027257204055786 4.649857997894287 19.28096628189087 4.55424439907074 19.520580410957336 C 4.458051323890686 19.759906888008118 4.2471219301223755 19.94688069820404 3.9220356941223145 20.080638885498047 C 3.711106300354004 20.176427006721497 3.3808047771453857 20.253230094909668 2.9305516481399536 20.310760498046875 C 2.4802985191345215 20.368290901184082 2.1019004583358765 20.416041135787964 1.7953574657440186 20.454298853874207 C 1.7571120262145996 20.358510732650757 1.6898927688598633 20.114294171333313 1.5948586463928223 19.721649169921875 C 1.4986655712127686 19.32871651649475 1.397836685180664 18.859843730926514 1.2929514646530151 18.31388020515442 C 1.1874867677688599 17.767916679382324 1.0820220708847046 17.154642581939697 0.9765573740005493 16.474920868873596 C 0.871092677116394 15.794623851776123 0.8183603286743164 15.099944233894348 0.8183603286743164 14.391457319259644 Z M 11.450592517852783 4.104158282279968 C 11.239083647727966 4.047203183174133 11.01482629776001 3.994275212287903 10.775502562522888 3.946524977684021 C 10.535019874572754 3.898774743080139 10.271937608718872 3.874611973762512 9.98509681224823 3.874611973762512 C 8.873661160469055 3.874611973762512 8.074563264846802 4.123430967330933 7.585485219955444 4.6213566064834595 C 7.096986651420593 5.119857549667358 6.853606581687927 5.876382350921631 6.853606581687927 6.891793966293335 C 6.853606581687927 7.906917929649353 7.192600250244141 8.678112983703613 7.872905492782593 9.204803824424744 C 8.552631258964539 9.73178231716156 9.41083574295044 9.995271563529968 10.444621562957764 9.995271563529968 C 10.732041835784912 9.995271563529968 10.971365571022034 9.92335855960846 11.163751721382141 9.779244899749756 C 11.35439944267273 9.635706543922424 11.450592517852783 9.401557803153992 11.450592517852783 9.075648069381714 C 11.450592517852783 9.075648069381714 11.450592517852783 4.104158282279968 11.450592517852783 4.104158282279968 Z"></path></g></svg></svg><svg id="SvgjsSvg43725" width="4" height="19" xmlns="http://www.w3.org/2000/svg" version="1.1" xmlns:xlink="http://www.w3.org/1999/xlink" xmlns:svgjs="http://svgjs.com/svgjs" viewBox="0.2498779296875 0 3.500195264816284 19" fill="#ffffff" opacity="1" x="800" y="153"><defs id="SvgjsDefs43726"></defs><svg version="1.1" xmlns="http://www.w3.org/2000/svg" xmlns:xlink="http://www.w3.org/1999/xlink" width="4" height="19" viewBox="0.116309 0.966892 3.21841 17.4705"><g><path fill="#ffffff" stroke="none" paint-order="stroke fill markers" fill-rule="evenodd" d=" M 3.334720730781555 17.14444136619568 C 3.334720730781555 18.006534457206726 2.912861943244934 18.437437176704407 2.0703033208847046 18.437437176704407 C 2.0703033208847046 18.437437176704407 0.11630904674530029 18.437437176704407 0.11630904674530029 18.437437176704407 C 0.11630904674530029 18.437437176704407 0.11630904674530029 2.2596001625061035 0.11630904674530029 2.2596001625061035 C 0.11630904674530029 1.3977947235107422 0.537588357925415 0.9668920040130615 1.3801469802856445 0.9668920040130615 C 1.3801469802856445 0.9668920040130615 3.334720730781555 0.9668920040130615 3.334720730781555 0.9668920040130615 C 3.334720730781555 0.9668920040130615 3.334720730781555 17.14444136619568 3.334720730781555 17.14444136619568 Z"></path></g></svg></svg><svg id="SvgjsSvg43729" width="15" height="18" xmlns="http://www.w3.org/2000/svg" version="1.1" xmlns:xlink="http://www.w3.org/1999/xlink" xmlns:svgjs="http://svgjs.com/svgjs" viewBox="0.63751220703125 0 13.72509765625 18" fill="#ffffff" opacity="1" x="805" y="160"><defs id="SvgjsDefs43730"></defs><svg version="1.1" xmlns="http://www.w3.org/2000/svg" xmlns:xlink="http://www.w3.org/1999/xlink" width="15" height="18" viewBox="0.920344 0.144507 13.5626 17.787"><g><path fill="#ffffff" stroke="none" paint-order="stroke fill markers" fill-rule="evenodd" d=" M 14.482988357543945 11.437437176704407 C 14.482988357543945 11.437437176704407 11.925759196281433 11.437437176704407 11.925759196281433 11.437437176704407 C 11.887513756752014 12.98903214931488 11.74380362033844 14.147982120513916 11.494049310684204 14.914287090301514 C 11.245453953742981 15.680304408073425 10.886178612709045 16.28351068496704 10.417961716651917 16.72476887702942 C 9.948006391525269 17.16516411304474 9.382437467575073 17.47640359401703 8.721834421157837 17.65848731994629 C 8.060651898384094 17.840283393859863 7.299219965934753 17.931469082832336 6.436959147453308 17.931469082832336 C 6.111293435096741 17.931469082832336 5.723044276237488 17.90299153327942 5.273370623588562 17.845461130142212 C 4.823696970939636 17.787930727005005 4.406473994255066 17.701635122299194 4.02344012260437 17.586861968040466 C 3.5059677362442017 17.452528476715088 3.1571229696273804 17.279937267303467 2.975167393684387 17.069663643836975 C 2.7926323413848877 16.858527064323425 2.7404794692993164 16.532904982566833 2.8169703483581543 16.092509746551514 C 2.8169703483581543 16.092509746551514 3.2191269397735596 14.282315611839294 3.2191269397735596 14.282315611839294 C 3.755142569541931 14.435058832168579 4.305645108222961 14.569679975509644 4.871214032173157 14.684453129768372 C 5.436782956123352 14.7992262840271 5.949040055274963 14.856756687164307 6.409144282341003 14.856756687164307 C 6.963703155517578 14.856756687164307 7.39019775390625 14.775351166725159 7.687469124794006 14.612827777862549 C 7.984161019325256 14.44944143295288 8.20899784564972 14.229099988937378 8.362559080123901 13.95180344581604 C 8.515540838241577 13.67393159866333 8.61173391342163 13.36700689792633 8.64997935295105 13.032179951667786 C 8.688224792480469 12.696777701377869 8.707347512245178 12.165196776390076 8.707347512245178 11.437437176704407 C 8.707347512245178 11.437437176704407 6.6959850788116455 11.437437176704407 6.6959850788116455 11.437437176704407 C 4.742570281028748 11.437437176704407 3.2909820079803467 10.997041940689087 2.3423792123794556 10.11538851261139 C 1.3949353694915771 9.234885692596436 0.9203442335128784 7.855594277381897 0.9203442335128784 5.9778019189834595 C 0.9203442335128784 4.023781776428223 1.45635986328125 2.563372492790222 2.529550075531006 1.5957111120224 C 3.6027402877807617 0.6286250352859497 5.153998494148254 0.14450669288635254 7.184483647346497 0.14450669288635254 C 8.046744465827942 0.14450669288635254 8.88466727733612 0.23569238185882568 9.698831558227539 0.4174884557723999 C 10.513575315475464 0.5998598337173462 11.254725575447083 0.7960385084152222 11.925759196281433 1.0065997838974 C 11.925759196281433 1.0065997838974 11.925759196281433 8.333959579467773 11.925759196281433 8.333959579467773 C 11.925759196281433 8.333959579467773 14.482988357543945 8.333959579467773 14.482988357543945 8.333959579467773 C 14.482988357543945 8.333959579467773 14.482988357543945 11.437437176704407 14.482988357543945 11.437437176704407 Z M 8.707347512245178 3.247984290122986 C 8.247822761535645 3.133211135864258 7.777867436408997 3.075680732727051 7.299219965934753 3.075680732727051 C 6.207486510276794 3.075680732727051 5.411865472793579 3.2865296602249146 4.9140952825546265 3.70765221118927 C 4.4157456159591675 4.129637718200684 4.167150259017944 4.847617149353027 4.167150259017944 5.862741112709045 C 4.167150259017944 6.8784403800964355 4.392566561698914 7.544067144393921 4.842240214347839 7.8599090576171875 C 5.291913866996765 8.17603862285614 5.8725491762161255 8.333959579467773 6.580669283866882 8.333959579467773 C 6.580669283866882 8.333959579467773 8.707347512245178 8.333959579467773 8.707347512245178 8.333959579467773 C 8.707347512245178 8.333959579467773 8.707347512245178 3.247984290122986 8.707347512245178 3.247984290122986 Z"></path></g></svg></svg><svg id="SvgjsSvg43733" width="9" height="4" xmlns="http://www.w3.org/2000/svg" version="1.1" xmlns:xlink="http://www.w3.org/1999/xlink" xmlns:svgjs="http://svgjs.com/svgjs" viewBox="0 0.35528564453125 9 3.2894532680511475" fill="#ffffff" opacity="1" x="830" y="180"><defs id="SvgjsDefs43734"></defs><svg version="1.1" xmlns="http://www.w3.org/2000/svg" xmlns:xlink="http://www.w3.org/1999/xlink" width="9" height="4" viewBox="0.315719 0.058185 8.24711 3.01427"><g><path fill="#ffffff" stroke="none" paint-order="stroke fill markers" fill-rule="evenodd" d=" M 1.2353483438491821 3.059729218482971 C 0.9664713144302368 3.097986936569214 0.746849775314331 3.049949049949646 0.5741658210754395 2.9159032106399536 C 0.40148186683654785 2.7818573713302612 0.3157193660736084 2.60926616191864 0.3157193660736084 2.3987048864364624 C 0.3157193660736084 2.3987048864364624 0.3157193660736084 1.421838641166687 0.3157193660736084 1.421838641166687 C 0.3157193660736084 1.421838641166687 7.815881848335266 0.07102477550506592 7.815881848335266 0.07102477550506592 C 8.025652289390564 0.03247940540313721 8.202972054481506 0.08080494403839111 8.347261667251587 0.2148507833480835 C 8.490392327308655 0.34860897064208984 8.562826871871948 0.5212001800537109 8.562826871871948 0.7323367595672607 C 8.562826871871948 0.7323367595672607 8.562826871871948 1.7376805543899536 8.562826871871948 1.7376805543899536 C 8.562826871871948 1.7376805543899536 1.2353483438491821 3.059729218482971 1.2353483438491821 3.059729218482971 Z"></path></g></svg></svg><svg id="SvgjsSvg43737" width="22" height="20" xmlns="http://www.w3.org/2000/svg" version="1.1" xmlns:xlink="http://www.w3.org/1999/xlink" xmlns:svgjs="http://svgjs.com/svgjs" viewBox="0 0.11444091796875 22 19.771093368530273" fill="#ffffff" opacity="1" x="818" y="152"><defs id="SvgjsDefs43738"></defs><svg version="1.1" xmlns="http://www.w3.org/2000/svg" xmlns:xlink="http://www.w3.org/1999/xlink" width="22" height="20" viewBox="0.561041 0.299949 21.2946 19.1372"><g><path fill="#ffffff" stroke="none" paint-order="stroke fill markers" fill-rule="evenodd" d=" M 18.608253121376038 14.954955816268921 C 18.05253529548645 15.204062461853027 17.401203870773315 15.328328132629395 16.654258847236633 15.328328132629395 C 15.562525391578674 15.328328132629395 14.690413475036621 15.218732714653015 14.039661526679993 14.99781596660614 C 13.387750625610352 14.777762174606323 12.861006617546082 14.461920261383057 12.458850026130676 14.049714922904968 C 12.057272911071777 13.637797236442566 11.778544783592224 13.158856630325317 11.626142501831055 12.612893104553223 C 11.472581267356873 12.066929578781128 11.396090388298035 11.372825264930725 11.396090388298035 10.52942955493927 C 11.396090388298035 9.686896800994873 11.486488699913025 8.99710726737976 11.669023752212524 8.460636258125305 C 11.850979328155518 7.924452900886536 12.162158131599426 7.45040237903595 12.60256016254425 7.038484692573547 C 13.043541669845581 6.626567006111145 13.617802739143372 6.310437440872192 14.326502323150635 6.0900959968566895 C 15.035781383514404 5.870042204856873 15.925857067108154 5.759583830833435 16.99904727935791 5.759583830833435 C 17.631255984306335 5.759583830833435 18.225219249725342 5.817114233970642 18.78093707561493 5.93188738822937 C 19.33607542514801 6.046660542488098 19.86281943321228 6.186171770095825 20.360589623451233 6.348695158958435 C 20.858939290046692 6.511506199836731 21.35728895664215 6.688987493515015 21.85563862323761 6.880276083946228 C 21.85563862323761 6.880276083946228 21.85563862323761 14.753599405288696 21.85563862323761 14.753599405288696 C 21.85563862323761 15.366873502731323 21.773932456970215 15.955984830856323 21.61109960079193 16.520933389663696 C 21.448266744613647 17.086169600486755 21.16548228263855 17.583807587623596 20.76390516757965 18.014997959136963 C 20.360589623451233 18.44618833065033 19.81530237197876 18.791083097457886 19.125725507736206 19.049394607543945 C 18.436148643493652 19.30799376964569 17.5640367269516 19.43714952468872 16.51054871082306 19.43714952468872 C 16.51054871082306 19.43714952468872 0.5610414743423462 19.43714952468872 0.5610414743423462 19.43714952468872 C 0.5610414743423462 19.43714952468872 0.5610414743423462 16.333959579467773 0.5610414743423462 16.333959579467773 C 0.5610414743423462 16.333959579467773 15.476183414459229 16.333959579467773 15.476183414459229 16.333959579467773 C 16.43405783176422 16.333959579467773 17.161300659179688 16.223788857460022 17.660229802131653 16.00344741344452 C 18.157999992370605 15.783393621444702 18.473814606666565 15.433608770370483 18.608253121376038 14.954955816268921 Z M 13.723267436027527 2.167385458946228 C 13.723267436027527 1.6504747867584229 13.90522301197052 1.210079550743103 14.269713640213013 0.8456244468688965 C 14.633045315742493 0.4823199510574341 15.083298444747925 0.2999485731124878 15.619893550872803 0.2999485731124878 C 16.13736593723297 0.2999485731124878 16.57718849182129 0.4823199510574341 16.94167912006378 0.8456244468688965 C 17.305590271949768 1.210079550743103 17.48754584789276 1.6504747867584229 17.48754584789276 2.167385458946228 C 17.48754584789276 2.6848714351654053 17.305590271949768 3.126129627227783 16.94167912006378 3.4897217750549316 C 16.57718849182129 3.853601574897766 16.13736593723297 4.035685300827026 15.619893550872803 4.035685300827026 C 15.083298444747925 4.035685300827026 14.633045315742493 3.853601574897766 14.269713640213013 3.4897217750549316 C 13.90522301197052 3.126129627227783 13.723267436027527 2.6848714351654053 13.723267436027527 2.167385458946228 Z M 16.424206733703613 12.51221489906311 C 16.903433680534363 12.51221489906311 17.2719806432724 12.493517518043518 17.53042709827423 12.45497214794159 C 17.78945302963257 12.416714429855347 18.014869332313538 12.368676543235779 18.206096529960632 12.311146140098572 C 18.39674425125122 12.25390338897705 18.5410338640213 12.186880469322205 18.637226939201355 12.109789729118347 C 18.637226939201355 12.109789729118347 18.637226939201355 9.035364985466003 18.637226939201355 9.035364985466003 C 18.31098175048828 8.920591831207275 18.00965404510498 8.829693794250488 17.73208487033844 8.762670874595642 C 17.453936219215393 8.69536030292511 17.06568706035614 8.661705017089844 16.568496346473694 8.661705017089844 C 15.859217286109924 8.661705017089844 15.308714747428894 8.805531024932861 14.91582977771759 9.09289538860321 C 14.523524284362793 9.38025975227356 14.326502323150635 9.907238245010376 14.326502323150635 10.673255562782288 C 14.326502323150635 11.037423014640808 14.379234671592712 11.33399224281311 14.484699368476868 11.564113855361938 C 14.589584589004517 11.79394781589508 14.738510012626648 11.980633974075317 14.930316686630249 12.124172329902649 C 15.121543884277344 12.268285989761353 15.341744899749756 12.368676543235779 15.591499209403992 12.4259192943573 C 15.839515089988708 12.483449697494507 16.11824321746826 12.51221489906311 16.424206733703613 12.51221489906311 Z M 18.062386393547058 2.167385458946228 C 18.062386393547058 1.6504747867584229 18.248977780342102 1.210079550743103 18.622740030288696 0.8456244468688965 C 18.99650228023529 0.4823199510574341 19.442119598388672 0.2999485731124878 19.959012508392334 0.2999485731124878 C 20.475905418395996 0.2999485731124878 20.91630744934082 0.4823199510574341 21.280798077583313 0.8456244468688965 C 21.6447092294693 1.210079550743103 21.826664805412292 1.6504747867584229 21.826664805412292 2.167385458946228 C 21.826664805412292 2.6848714351654053 21.6447092294693 3.126129627227783 21.280798077583313 3.4897217750549316 C 20.91630744934082 3.853601574897766 20.475905418395996 4.035685300827026 19.959012508392334 4.035685300827026 C 19.442119598388672 4.035685300827026 18.99650228023529 3.853601574897766 18.622740030288696 3.4897217750549316 C 18.248977780342102 3.126129627227783 18.062386393547058 2.6848714351654053 18.062386393547058 2.167385458946228 Z"></path></g></svg></svg></svg><svg id="SvgjsSvg43741" width="57" height="58" xmlns="http://www.w3.org/2000/svg" version="1.1" xmlns:xlink="http://www.w3.org/1999/xlink" xmlns:svgjs="http://svgjs.com/svgjs" viewBox="854 129 57 58" x="854" y="129"><defs id="SvgjsDefs43742"></defs><svg id="SvgjsSvg43743" width="15" height="15" xmlns="http://www.w3.org/2000/svg" version="1.1" xmlns:xlink="http://www.w3.org/1999/xlink" xmlns:svgjs="http://svgjs.com/svgjs" viewBox="0.00018310546875 0 14.999707221984863 15" fill="none" opacity="1" x="854" y="129"><defs id="SvgjsDefs43744"></defs><svg version="1.1" xmlns="http://www.w3.org/2000/svg" xmlns:xlink="http://www.w3.org/1999/xlink" width="15" height="15" viewBox="0.0203587 0.168987 14.2232 14.2235"><g><path fill="none" stroke="none" paint-order="stroke fill markers" fill-rule="evenodd" d=" M 7.132272005081177 14.392516255378723 C 3.199365973472595 14.392516255378723 0.020358681678771973 11.213386178016663 0.020358681678771973 7.28060781955719 C 0.020358681678771973 3.3478294610977173 3.199365973472595 0.16898703575134277 7.132272005081177 0.16898703575134277 C 11.064598560333252 0.16898703575134277 14.243605852127075 3.3478294610977173 14.243605852127075 7.28060781955719 C 14.243605852127075 11.213386178016663 11.064598560333252 14.392516255378723 7.132272005081177 14.392516255378723 Z"></path></g></svg></svg><svg id="SvgjsSvg43747" width="15" height="15" xmlns="http://www.w3.org/2000/svg" version="1.1" xmlns:xlink="http://www.w3.org/1999/xlink" xmlns:svgjs="http://svgjs.com/svgjs" viewBox="0.00018310546875 0 14.999707221984863 15" fill="#011936" opacity="1" x="875" y="129"><defs id="SvgjsDefs43748"></defs><svg version="1.1" xmlns="http://www.w3.org/2000/svg" xmlns:xlink="http://www.w3.org/1999/xlink" width="15" height="15" viewBox="0.355519 0.168987 14.2232 14.2235"><g><path fill="#011936" stroke="none" paint-order="stroke fill markers" fill-rule="evenodd" d=" M 7.467432498931885 14.392516255378723 C 3.5345264673233032 14.392516255378723 0.35551917552948 11.213386178016663 0.35551917552948 7.28060781955719 C 0.35551917552948 3.3478294610977173 3.5345264673233032 0.16898703575134277 7.467432498931885 0.16898703575134277 C 11.39975905418396 0.16898703575134277 14.578766345977783 3.3478294610977173 14.578766345977783 7.28060781955719 C 14.578766345977783 11.213386178016663 11.39975905418396 14.392516255378723 7.467432498931885 14.392516255378723 Z"></path></g></svg></svg><svg id="SvgjsSvg43751" width="15" height="15" xmlns="http://www.w3.org/2000/svg" version="1.1" xmlns:xlink="http://www.w3.org/1999/xlink" xmlns:svgjs="http://svgjs.com/svgjs" viewBox="0.00018310546875 0 14.999707221984863 15" fill="none" opacity="1" x="896" y="129"><defs id="SvgjsDefs43752"></defs><svg version="1.1" xmlns="http://www.w3.org/2000/svg" xmlns:xlink="http://www.w3.org/1999/xlink" width="15" height="15" viewBox="0.69068 0.168987 14.2232 14.2235"><g><path fill="none" stroke="none" paint-order="stroke fill markers" fill-rule="evenodd" d=" M 7.802592992782593 14.392516255378723 C 3.8696869611740112 14.392516255378723 0.690679669380188 11.213386178016663 0.690679669380188 7.28060781955719 C 0.690679669380188 3.3478294610977173 3.8696869611740112 0.16898703575134277 7.802592992782593 0.16898703575134277 C 11.735499024391174 0.16898703575134277 14.913926839828491 3.3478294610977173 14.913926839828491 7.28060781955719 C 14.913926839828491 11.213386178016663 11.735499024391174 14.392516255378723 7.802592992782593 14.392516255378723 Z"></path></g></svg></svg><svg id="SvgjsSvg43755" width="15" height="16" xmlns="http://www.w3.org/2000/svg" version="1.1" xmlns:xlink="http://www.w3.org/1999/xlink" xmlns:svgjs="http://svgjs.com/svgjs" viewBox="0 0.49981689453125 15 15.000391006469727" fill="#06bee1" opacity="1" x="854" y="171"><defs id="SvgjsDefs43756"></defs><svg version="1.1" xmlns="http://www.w3.org/2000/svg" xmlns:xlink="http://www.w3.org/1999/xlink" width="15" height="16" viewBox="0.0203587 0.839287 14.2232 14.2235"><g><path fill="#06bee1" stroke="none" paint-order="stroke fill markers" fill-rule="evenodd" d=" M 7.132272005081177 15.062816262245178 C 3.199365973472595 15.062816262245178 0.020358681678771973 11.883973836898804 0.020358681678771973 7.951195478439331 C 0.020358681678771973 4.018417119979858 3.199365973472595 0.8392870426177979 7.132272005081177 0.8392870426177979 C 11.064598560333252 0.8392870426177979 14.243605852127075 4.018417119979858 14.243605852127075 7.951195478439331 C 14.243605852127075 11.883973836898804 11.064598560333252 15.062816262245178 7.132272005081177 15.062816262245178 Z"></path></g></svg></svg><svg id="SvgjsSvg43759" width="15" height="16" xmlns="http://www.w3.org/2000/svg" version="1.1" xmlns:xlink="http://www.w3.org/1999/xlink" xmlns:svgjs="http://svgjs.com/svgjs" viewBox="0 0.49981689453125 15.00009822845459 15.000391006469727" fill="#011936" opacity="1" x="875" y="171"><defs id="SvgjsDefs43760"></defs><svg version="1.1" xmlns="http://www.w3.org/2000/svg" xmlns:xlink="http://www.w3.org/1999/xlink" width="15" height="16" viewBox="0.355519 0.839287 14.2232 14.2235"><g><path fill="#011936" stroke="none" paint-order="stroke fill markers" fill-rule="evenodd" d=" M 7.467432498931885 15.062816262245178 C 3.5345264673233032 15.062816262245178 0.35551917552948 11.883973836898804 0.35551917552948 7.951195478439331 C 0.35551917552948 4.018417119979858 3.5345264673233032 0.8392870426177979 7.467432498931885 0.8392870426177979 C 11.39975905418396 0.8392870426177979 14.578766345977783 4.018417119979858 14.578766345977783 7.951195478439331 C 14.578766345977783 11.883973836898804 11.39975905418396 15.062816262245178 7.467432498931885 15.062816262245178 Z"></path></g></svg></svg><svg id="SvgjsSvg43763" width="15" height="16" xmlns="http://www.w3.org/2000/svg" version="1.1" xmlns:xlink="http://www.w3.org/1999/xlink" xmlns:svgjs="http://svgjs.com/svgjs" viewBox="0 0.49981689453125 15 15.000391006469727" fill="#011936" opacity="1" x="896" y="171"><defs id="SvgjsDefs43764"></defs><svg version="1.1" xmlns="http://www.w3.org/2000/svg" xmlns:xlink="http://www.w3.org/1999/xlink" width="15" height="16" viewBox="0.69068 0.839287 14.2232 14.2235"><g><path fill="#011936" stroke="none" paint-order="stroke fill markers" fill-rule="evenodd" d=" M 7.802592992782593 15.062816262245178 C 3.8696869611740112 15.062816262245178 0.690679669380188 11.883973836898804 0.690679669380188 7.951195478439331 C 0.690679669380188 4.018417119979858 3.8696869611740112 0.8392870426177979 7.802592992782593 0.8392870426177979 C 11.735499024391174 0.8392870426177979 14.913926839828491 4.018417119979858 14.913926839828491 7.951195478439331 C 14.913926839828491 11.883973836898804 11.735499024391174 15.062816262245178 7.802592992782593 15.062816262245178 Z"></path></g></svg></svg><svg id="SvgjsSvg43767" width="15" height="15" xmlns="http://www.w3.org/2000/svg" version="1.1" xmlns:xlink="http://www.w3.org/1999/xlink" xmlns:svgjs="http://svgjs.com/svgjs" viewBox="0.00018310546875 0 14.999707221984863 15" fill="#011936" opacity="1" x="854" y="150"><defs id="SvgjsDefs43768"></defs><svg version="1.1" xmlns="http://www.w3.org/2000/svg" xmlns:xlink="http://www.w3.org/1999/xlink" width="15" height="15" viewBox="0.0203587 0.504137 14.2232 14.2235"><g><path fill="#011936" stroke="none" paint-order="stroke fill markers" fill-rule="evenodd" d=" M 7.132272005081177 14.72766625881195 C 3.199365973472595 14.72766625881195 0.020358681678771973 11.54853618144989 0.020358681678771973 7.6157578229904175 C 0.020358681678771973 3.682979464530945 3.199365973472595 0.5041370391845703 7.132272005081177 0.5041370391845703 C 11.064598560333252 0.5041370391845703 14.243605852127075 3.682979464530945 14.243605852127075 7.6157578229904175 C 14.243605852127075 11.54853618144989 11.064598560333252 14.72766625881195 7.132272005081177 14.72766625881195 Z"></path></g></svg></svg><svg id="SvgjsSvg43771" width="15" height="15" xmlns="http://www.w3.org/2000/svg" version="1.1" xmlns:xlink="http://www.w3.org/1999/xlink" xmlns:svgjs="http://svgjs.com/svgjs" viewBox="0.00018310546875 0 14.999707221984863 15" fill="#ffd503" opacity="1" x="875" y="150"><defs id="SvgjsDefs43772"></defs><svg version="1.1" xmlns="http://www.w3.org/2000/svg" xmlns:xlink="http://www.w3.org/1999/xlink" width="15" height="15" viewBox="0.355519 0.504137 14.2232 14.2235"><g><path fill="#ffd503" stroke="none" paint-order="stroke fill markers" fill-rule="evenodd" d=" M 7.467432498931885 14.72766625881195 C 3.5345264673233032 14.72766625881195 0.35551917552948 11.54853618144989 0.35551917552948 7.6157578229904175 C 0.35551917552948 3.682979464530945 3.5345264673233032 0.5041370391845703 7.467432498931885 0.5041370391845703 C 11.39975905418396 0.5041370391845703 14.578766345977783 3.682979464530945 14.578766345977783 7.6157578229904175 C 14.578766345977783 11.54853618144989 11.39975905418396 14.72766625881195 7.467432498931885 14.72766625881195 Z"></path></g></svg></svg><svg id="SvgjsSvg43775" width="15" height="15" xmlns="http://www.w3.org/2000/svg" version="1.1" xmlns:xlink="http://www.w3.org/1999/xlink" xmlns:svgjs="http://svgjs.com/svgjs" viewBox="0.00018310546875 0 14.999707221984863 15" fill="#011936" opacity="1" x="896" y="150"><defs id="SvgjsDefs43776"></defs><svg version="1.1" xmlns="http://www.w3.org/2000/svg" xmlns:xlink="http://www.w3.org/1999/xlink" width="15" height="15" viewBox="0.69068 0.504137 14.2232 14.2235"><g><path fill="#011936" stroke="none" paint-order="stroke fill markers" fill-rule="evenodd" d=" M 7.802592992782593 14.72766625881195 C 3.8696869611740112 14.72766625881195 0.690679669380188 11.54853618144989 0.690679669380188 7.6157578229904175 C 0.690679669380188 3.682979464530945 3.8696869611740112 0.5041370391845703 7.802592992782593 0.5041370391845703 C 11.735499024391174 0.5041370391845703 14.913926839828491 3.682979464530945 14.913926839828491 7.6157578229904175 C 14.913926839828491 11.54853618144989 11.735499024391174 14.72766625881195 7.802592992782593 14.72766625881195 Z"></path></g></svg></svg></svg></svg></svg></svg>