<svg id="SvgjsSvg25362" width="2607" height="810" xmlns="http://www.w3.org/2000/svg" version="1.1" xmlns:xlink="http://www.w3.org/1999/xlink" xmlns:svgjs="http://svgjs.com/svgjs" viewBox="0 40.86724853515625 2607.003662109375 728.2659301757812" fill="none" opacity="0.37254901960784315"><defs id="SvgjsDefs25363"></defs><svg version="1.1" xmlns="http://www.w3.org/2000/svg" xmlns:xlink="http://www.w3.org/1999/xlink" width="2607" height="810" viewBox="0.773785 0.293424 2895.5 808.858"><g><path fill="none" stroke="none" paint-order="stroke fill markers" fill-rule="evenodd" d=" M 777.9836875200272 34.585283398628235 C 1037.542157649994 37.740538358688354 1289.3617210388184 136.75697815418243 1505.6176614761353 280.34567308425903 C 1635.8578699827194 366.820484995842 1764.8365584611893 473.3567237854004 1920.6160284280777 486.4184265136719 C 2071.6826171875 499.08518302440643 2359.380459189415 187.0857254266739 2515.9943751096725 102.61239624023438 C 2626.6430674791336 42.93179428577423 2784.002769470215 54.92544507980347 2896.2774724960327 0.2934236526489258 C 2896.2774724960327 0.2934236526489258 2826.152141213417 262.00641882419586 2826.152141213417 262.00641882419586 C 2636.0595582723618 432.50869929790497 2405.522423028946 634.3046425580978 2285.293827533722 696.0261355638504 C 2100.468105196953 790.9101665019989 1883.8210182189941 840.4242832660675 1682.9577082395554 787.5969905853271 C 1498.7045085430145 739.1394196748734 1345.830533027649 610.9372310638428 1168.04081261158 542.4593675136566 C 946.4612228870392 457.11560332775116 688.5223891735077 471.7130801677704 477.90359473228455 581.5130187273026 C 405.8178949356079 619.0944669246674 338.2805050611496 667.5157936811447 260.2661826610565 690.3317762613297 C 182.25128078460693 713.1477588415146 87.14646220207214 703.688609957695 35.63507044315338 640.8087422847748 C -36.025293707847595 553.331463098526 13.794027090072632 419.5430723428726 86.00257587432861 332.46908128261566 C 251.7924998998642 132.5535192489624 518.4246379137039 31.430891394615173 777.9836875200272 34.585283398628235 Z"></path></g></svg></svg>